#N canvas 228 23 823 590 12;
#X obj 94 419 line~;
#X obj 92 470 *~;
#X floatatom 161 149 5 0 0 0 attack - -, f 5;
#X floatatom 267 148 5 0 0 0 decay - -, f 5;
#X obj 80 227 t b b;
#X obj 248 324 f;
#X text 318 366 decay;
#X obj 555 80 loadbang;
#X msg 169 101 10;
#X msg 237 102 250;
#X floatatom 384 146 5 0 0 0 sustain - -, f 5;
#X obj 382 174 / 100;
#X obj 249 365 pack f f;
#X floatatom 502 145 5 0 0 0 release - -, f 5;
#X obj 497 339 f;
#X obj 472 380 pack 0 f;
#X msg 496 101 250;
#X msg 407 100 60;
#X obj 159 45 r attack;
#X obj 263 47 r decay;
#X obj 388 43 r sustain;
#X obj 503 41 r release;
#X floatatom 153 445 5 0 0 0 - - -, f 5;
#X obj 243 413 loadbang;
#X obj 153 471 osc~;
#X msg 243 437 5;
#X obj 84 360 pack 0.5 f;
#X obj 85 193 inlet;
#X obj 88 537 outlet~;
#X obj 22 452 print~;
#X obj 199 274 del;
#X obj 465 310 del;
#X obj 93 495 *~ 1;
#X connect 0 0 1 0;
#X connect 0 0 1 1;
#X connect 0 0 29 0;
#X connect 1 0 32 0;
#X connect 2 0 26 1;
#X connect 2 0 30 1;
#X connect 3 0 12 1;
#X connect 3 0 31 1;
#X connect 4 0 26 0;
#X connect 4 1 30 0;
#X connect 5 0 12 0;
#X connect 7 0 8 0;
#X connect 7 0 9 0;
#X connect 7 0 17 0;
#X connect 7 0 16 0;
#X connect 8 0 2 0;
#X connect 9 0 3 0;
#X connect 10 0 11 0;
#X connect 11 0 5 1;
#X connect 12 0 0 0;
#X connect 13 0 14 1;
#X connect 14 0 15 1;
#X connect 15 0 0 0;
#X connect 16 0 13 0;
#X connect 17 0 10 0;
#X connect 18 0 2 0;
#X connect 19 0 3 0;
#X connect 20 0 10 0;
#X connect 21 0 13 0;
#X connect 22 0 24 0;
#X connect 23 0 25 0;
#X connect 25 0 22 0;
#X connect 26 0 0 0;
#X connect 27 0 4 0;
#X connect 30 0 5 0;
#X connect 30 0 31 0;
#X connect 31 0 14 0;
#X connect 31 0 15 0;
#X connect 32 0 28 0;
