#N canvas 226 310 973 515 12;
#X obj 428 338 +~;
#X obj 194 124 hip~ 10;
#X floatatom 584 161 5 0 0 0 - - -, f 5;
#X obj 452 193 line~;
#X obj 453 288 *~;
#X obj 593 241 pack 0 50;
#X obj 593 211 / 100;
#X obj 593 270 line~;
#X obj 452 164 pack f 200;
#X obj 450 221 vd~ delay-7-\$0;
#X obj 480 358 delwrite~ delay-7-\$0 5000;
#X obj 429 405 outlet~;
#X obj 525 32 inlet;
#X obj 582 125 inlet;
#X obj 194 73 inlet~;
#X obj 450 106 /;
#X msg 451 72 1;
#X obj 525 57 t b f;
#X obj 450 131 * 1000;
#X obj 539 89 mtof;
#X connect 0 0 10 0;
#X connect 0 0 11 0;
#X connect 1 0 0 0;
#X connect 2 0 6 0;
#X connect 3 0 9 0;
#X connect 4 0 0 1;
#X connect 5 0 7 0;
#X connect 6 0 5 0;
#X connect 7 0 4 1;
#X connect 8 0 3 0;
#X connect 9 0 4 0;
#X connect 12 0 17 0;
#X connect 13 0 2 0;
#X connect 14 0 1 0;
#X connect 15 0 18 0;
#X connect 16 0 15 0;
#X connect 17 0 16 0;
#X connect 17 1 19 0;
#X connect 18 0 8 0;
#X connect 19 0 15 1;
