#N canvas 911 145 844 494 12;
#X obj 37 156 output~;
#X floatatom 336 45 5 0 500 0 attack set-attack attack, f 5;
#X floatatom 336 78 5 0 1000 0 decay set-decay decay, f 5;
#X floatatom 333 137 5 0 500 0 release set-release release, f 5;
#X floatatom 335 111 5 0 100 0 sustain set-sustain sustain, f 5;
#N canvas 0 22 450 278 (subpatch) 0;
#X array output-8 800 float 2;
#X coords 0 1 800 -1 800 140 1 0 0;
#X restore 19 332 graph;
#X floatatom 333 168 5 0 0 0 Modulation_Index set-ModIndex ModIndex
, f 5;
#X floatatom 334 200 5 0 0 0 Offset set-offset offset, f 5;
#X floatatom 334 228 5 0 15 0 Quality set-quality quality, f 5;
#X obj 76 94 SoundMaker;
#X obj 73 44 tgl 30 0 empty empty empty 17 7 0 10 -262144 -1 -1 0 1
;
#X obj 71 10 inlet;
#X connect 9 0 0 1;
#X connect 10 0 9 0;
#X connect 11 0 10 0;
