#N canvas 0 22 680 379 12;
#X obj 57 254 *~;
#X obj 57 294 +~;
#X obj 254 234 line~;
#X floatatom 252 130 3 0 500 0 - - -, f 3;
#X obj 252 198 pack 0 50;
#X obj 253 164 / 100;
#X obj 496 276 line~;
#X floatatom 494 172 3 0 25 0 - - -, f 3;
#X obj 494 240 pack 0 50;
#X obj 495 206 / 100;
#X text 204 59 index of modulation;
#X text 551 104 offset;
#X obj 56 323 cos~;
#X msg 308 110 20;
#X text 324 131 default values;
#X msg 437 152 1;
#X text 48 66 Inbound signal;
#X obj 55 86 inlet~;
#X obj 252 81 inlet;
#X obj 502 103 inlet;
#X obj 114 124 /~ 2;
#X obj 56 348 outlet~;
#X text 27 12 Modulator;
#X obj 439 71 loadbang;
#X connect 0 0 1 0;
#X connect 1 0 12 0;
#X connect 2 0 0 1;
#X connect 3 0 5 0;
#X connect 4 0 2 0;
#X connect 5 0 4 0;
#X connect 6 0 1 1;
#X connect 7 0 9 0;
#X connect 8 0 6 0;
#X connect 9 0 8 0;
#X connect 12 0 21 0;
#X connect 13 0 3 0;
#X connect 15 0 7 0;
#X connect 17 0 0 0;
#X connect 17 0 20 0;
#X connect 18 0 3 0;
#X connect 19 0 7 0;
#X connect 23 0 15 0;
#X connect 23 0 13 0;
