#N canvas 213 39 741 481 12;
#X msg 29 45 listen 9000;
#X obj 29 17 loadbang;
#X obj 29 102 oscparse;
#X obj 30 179 route wii;
#X obj 29 75 netreceive -u -b;
#X obj 29 129 list trim;
#X obj 133 186 symbol 1;
#X symbolatom 133 158 10 0 0 0 - - -, f 10;
#N canvas 144 101 1107 529 PitchRollYawProcessor 0;
#X obj 55 74 route pry;
#X symbolatom 670 69 10 0 0 2 Pitch_is_0 - -, f 10;
#X floatatom 303 434 5 0 0 0 - - -, f 5;
#X obj 671 102 symbol 0;
#X obj 53 148 route s;
#X obj 175 169 route s;
#X symbolatom 766 89 10 0 0 2 Roll_is_1 - -, f 10;
#X obj 767 122 symbol 1;
#X obj 296 189 route s;
#X symbolatom 852 101 10 0 0 2 Yaw_is_2 - -, f 10;
#X obj 853 134 symbol 2;
#X obj 301 405 * 150;
#X obj 176 369 * 100;
#X obj 54 361 * 8;
#X obj 54 383 + 8;
#X floatatom 174 392 5 0 0 0 - - -, f 5;
#X floatatom 54 405 5 0 0 3 unused - -, f 5;
#X obj 53 12 inlet;
#X obj 1021 332 r ABang;
#X obj 1019 429 r BBang;
#X obj 1021 357 tgl 35 0 \$0-aToggle empty empty 17 7 0 10 -258113
-1 -1 0 1;
#X obj 1019 458 tgl 35 0 \$0-bToggle empty empty 17 7 0 10 -4160 -1
-1 0 1;
#X obj 575 203 route s;
#X obj 700 223 route s;
#X obj 820 243 route s;
#X obj 296 280 list prepend;
#X obj 435 235 r \$0-aToggle;
#X obj 176 280 list prepend;
#X obj 56 280 list prepend;
#X obj 296 305 route 1;
#X obj 435 260 f;
#X obj 176 305 route 1;
#X obj 54 304 route 1;
#X obj 822 291 list prepend;
#X obj 575 291 list prepend;
#X obj 700 291 list prepend;
#X obj 822 316 route 1;
#X obj 959 271 f;
#X obj 575 315 route 1;
#X obj 698 315 route 1;
#X obj 959 246 r \$0-bToggle;
#X obj 698 340 * 70;
#X floatatom 698 365 5 0 0 0 - - -, f 5;
#X obj 698 387 s PitchShift;
#X floatatom 822 403 5 0 0 0 - - -, f 5;
#X obj 821 461 s Feedback;
#X floatatom 575 340 5 0 0 3 unused - -, f 5;
#X obj 295 492 s ModIndex;
#X obj 174 417 s Offset;
#X obj 822 341 * 15;
#X obj 822 366 + 84;
#X text 872 402 85 to 99;
#X obj 614 20 r PitchOSC;
#X obj 753 25 r RollOSC;
#X obj 848 24 r YawOSc;
#X text 500 67 Set these values -->;
#X connect 0 0 4 0;
#X connect 0 0 22 0;
#X connect 1 0 3 0;
#X connect 2 0 47 0;
#X connect 3 0 4 1;
#X connect 3 0 22 1;
#X connect 4 0 28 0;
#X connect 4 1 5 0;
#X connect 5 0 27 0;
#X connect 5 1 8 0;
#X connect 6 0 7 0;
#X connect 7 0 5 1;
#X connect 7 0 23 1;
#X connect 8 0 25 0;
#X connect 9 0 10 0;
#X connect 10 0 8 1;
#X connect 10 0 24 1;
#X connect 11 0 2 0;
#X connect 12 0 15 0;
#X connect 13 0 14 0;
#X connect 14 0 16 0;
#X connect 15 0 48 0;
#X connect 17 0 0 0;
#X connect 18 0 20 0;
#X connect 19 0 21 0;
#X connect 22 0 34 0;
#X connect 22 1 23 0;
#X connect 23 0 35 0;
#X connect 23 1 24 0;
#X connect 24 0 33 0;
#X connect 25 0 29 0;
#X connect 26 0 30 0;
#X connect 27 0 31 0;
#X connect 28 0 32 0;
#X connect 29 0 11 0;
#X connect 30 0 25 1;
#X connect 30 0 27 1;
#X connect 30 0 28 1;
#X connect 31 0 12 0;
#X connect 32 0 13 0;
#X connect 33 0 36 0;
#X connect 34 0 38 0;
#X connect 35 0 39 0;
#X connect 36 0 49 0;
#X connect 37 0 33 1;
#X connect 37 0 34 1;
#X connect 37 0 35 1;
#X connect 38 0 46 0;
#X connect 39 0 41 0;
#X connect 40 0 37 0;
#X connect 41 0 42 0;
#X connect 42 0 43 0;
#X connect 44 0 45 0;
#X connect 49 0 50 0;
#X connect 50 0 44 0;
#X connect 52 0 1 0;
#X connect 53 0 6 0;
#X connect 54 0 9 0;
#X restore 21 433 pd PitchRollYawProcessor;
#X text 218 432 <-- Set routing values here before playing;
#N canvas 0 23 683 243 ButtonProcessor 0;
#X obj 42 13 inlet;
#X obj 158 97 sel 1;
#X obj 224 99 sel 1;
#X obj 362 100 sel 1;
#X obj 300 99 sel 1;
#X obj 304 169 s LeftBang;
#X obj 368 138 s RightBang;
#X obj 209 137 s DownBang;
#X obj 143 168 s UpBang;
#X obj 5 166 s ABang;
#X obj 69 140 s BBang;
#X obj 482 103 sel 1;
#X obj 41 35 route A B Up Down Left Right Home;
#X obj 488 141 s HomeBang;
#X obj 11 93 sel 1 0;
#X obj 86 101 sel 1 0;
#X connect 0 0 12 0;
#X connect 1 0 8 0;
#X connect 2 0 7 0;
#X connect 3 0 6 0;
#X connect 4 0 5 0;
#X connect 11 0 13 0;
#X connect 12 0 14 0;
#X connect 12 1 15 0;
#X connect 12 2 1 0;
#X connect 12 3 2 0;
#X connect 12 4 4 0;
#X connect 12 5 3 0;
#X connect 12 6 11 0;
#X connect 14 0 9 0;
#X connect 14 1 9 0;
#X connect 15 0 10 0;
#X connect 15 1 10 0;
#X restore 98 327 pd ButtonProcessor;
#X obj 29 246 route accel button;
#X text 217 154 set to 1;
#X obj 29 207 route s;
#X obj 385 282 VoiceSelector;
#X obj 134 129 r wiiOSC;
#X text 344 262 This is where the magic happens;
#X connect 0 0 4 0;
#X connect 1 0 0 0;
#X connect 2 0 5 0;
#X connect 3 0 13 0;
#X connect 4 0 2 0;
#X connect 5 0 3 0;
#X connect 6 0 13 1;
#X connect 7 0 6 0;
#X connect 11 0 8 0;
#X connect 11 1 10 0;
#X connect 13 0 11 0;
#X connect 15 0 7 0;
