#N canvas 522 65 912 691 12;
#X msg 29 45 listen 9000;
#X obj 29 17 loadbang;
#X obj 29 102 oscparse;
#X obj 30 179 route wii;
#X obj 29 75 netreceive -u -b;
#X obj 29 129 list trim;
#X obj 133 186 symbol 1;
#X symbolatom 133 158 10 0 0 0 - - -, f 10;
#N canvas 128 689 571 413 PitchRollYawProcessor 0;
#X obj 53 112 route pry;
#X symbolatom 214 98 10 0 0 0 - - -, f 10;
#X floatatom 52 267 5 0 0 0 - - -, f 5;
#X obj 215 131 symbol 0;
#X obj 53 148 route s;
#X obj 133 184 route s;
#X symbolatom 310 118 10 0 0 0 - - -, f 10;
#X obj 311 151 symbol 1;
#X obj 261 206 route s;
#X symbolatom 396 130 10 0 0 0 - - -, f 10;
#X obj 397 163 symbol 2;
#X obj 50 238 * 150;
#X obj 44 325 s set-ModIndex;
#X obj 133 206 * 100;
#X obj 131 254 s set-offset;
#X obj 261 228 * 8;
#X obj 261 250 + 8;
#X obj 261 301 s set-quality;
#X floatatom 131 229 5 0 0 0 - - -, f 5;
#X floatatom 261 272 5 0 0 0 - - -, f 5;
#X text 211 80 Pitch is 0;
#X text 397 109 Yaw is 2;
#X text 310 97 Roll is 1;
#X obj 53 12 inlet;
#X connect 0 0 4 0;
#X connect 1 0 3 0;
#X connect 2 0 12 0;
#X connect 3 0 4 1;
#X connect 4 0 11 0;
#X connect 4 1 5 0;
#X connect 5 0 13 0;
#X connect 5 1 8 0;
#X connect 6 0 7 0;
#X connect 7 0 5 1;
#X connect 8 0 15 0;
#X connect 9 0 10 0;
#X connect 10 0 8 1;
#X connect 11 0 2 0;
#X connect 13 0 18 0;
#X connect 15 0 16 0;
#X connect 16 0 19 0;
#X connect 18 0 14 0;
#X connect 19 0 17 0;
#X connect 23 0 0 0;
#X restore 21 433 pd PitchRollYawProcessor;
#X text 218 432 <-- Set routing values here before playing;
#N canvas 0 23 683 243 ButtonProcessor 0;
#X obj 42 13 inlet;
#X obj 41 35 route A B Up Down Left Right;
#X obj 11 93 sel 1;
#X obj 86 102 sel 1;
#X obj 158 97 sel 1;
#X obj 224 99 sel 1;
#X obj 362 100 sel 1;
#X obj 300 99 sel 1;
#X text 279 34 Button Outlet order: A \, B \, Up Down \, Left \, Right
;
#X obj 304 169 s LeftBang;
#X obj 368 138 s RightBang;
#X obj 209 137 s DownBang;
#X obj 143 168 s UpBang;
#X obj 5 166 s ABang;
#X obj 69 140 s BBang;
#X connect 0 0 1 0;
#X connect 1 0 2 0;
#X connect 1 1 3 0;
#X connect 1 2 4 0;
#X connect 1 3 5 0;
#X connect 1 4 7 0;
#X connect 1 5 6 0;
#X connect 2 0 13 0;
#X connect 3 0 14 0;
#X connect 4 0 12 0;
#X connect 5 0 11 0;
#X connect 6 0 10 0;
#X connect 7 0 9 0;
#X restore 98 327 pd ButtonProcessor;
#X obj 29 246 route accel button;
#X text 217 154 set to 1;
#X obj 29 207 route s;
#X obj 426 237 output~;
#X floatatom 670 70 5 0 0 0 Voice_Index voice-index-set -, f 5;
#X obj 443 107 VoiceSelector;
#X connect 0 0 4 0;
#X connect 1 0 0 0;
#X connect 2 0 5 0;
#X connect 3 0 13 0;
#X connect 4 0 2 0;
#X connect 5 0 3 0;
#X connect 6 0 13 1;
#X connect 7 0 6 0;
#X connect 11 0 8 0;
#X connect 11 1 10 0;
#X connect 13 0 11 0;
