#N canvas 452 376 569 431 12;
#X obj 158 373 dac~;
#X obj 144 329 *~;
#X obj 445 245 line~;
#X floatatom 443 136 3 0 300 0 - - -, f 3;
#X obj 444 213 pack 0 50;
#X obj 445 279 *~;
#X obj 445 179 / 100;
#X obj 235 334 *~;
#X obj 412 139 bng 15 250 50 0 empty empty empty 17 7 0 10 -262144
-1 -1;
#X msg 339 131 0;
#X text 400 119 mute;
#X obj 144 284 r~ voice-output;
#X obj 143 237 inlet;
#X text 137 201 inlet can be used to modify receive param name;
#X connect 1 0 0 0;
#X connect 2 0 5 0;
#X connect 2 0 5 1;
#X connect 3 0 6 0;
#X connect 4 0 2 0;
#X connect 5 0 1 1;
#X connect 5 0 7 1;
#X connect 6 0 4 0;
#X connect 7 0 0 1;
#X connect 8 0 9 0;
#X connect 9 0 3 0;
#X connect 11 0 1 0;
#X connect 12 0 11 0;
#X coords 0 -1 1 1 85 60 1 400 100;
