#N canvas 0 22 1059 538 12;
#X text 23 17 Qwiivwer Synthesizer;
#X obj 25 49 OSCReceiveWiimote;
#X floatatom 25 96 5 0 0 0 - voice-index-set -, f 5;
#X text 75 94 Current Voice Index;
#X floatatom 26 128 5 0 0 0 - ModIndex -, f 5;
#X floatatom 27 156 5 0 0 0 - Offset -, f 5;
#X floatatom 26 188 5 0 0 0 - PitchShift -, f 5;
#X floatatom 25 217 5 0 0 0 - Feedback -, f 5;
#X text 73 125 Modulation Index;
#X text 76 154 Offset;
#X text 74 187 Triad Pitch Shift;
#X text 74 216 Feedback;
#X text 204 147 The number boxes display the values as they are for
the currently selected voice.;
#X text 521 268 To change which voices are loaded \, edit the VoicesLib.txt
file and reopen the patch. The voice index is equal to the line number
- 1;
#X text 24 320 Use the Home button to play/pause the current voice.
;
#X text 25 349 Use the Up and Down arrow keys to change the delay between
plays of the currently selected voice.;
#X text 23 271 Use the left and right arrow keys to change the voice
index and to select a voice. The patch supports up to 11 tracks.;
#X text 23 248 Wiimote Controls:;
#X text 175 49 <--- Click here to setup OSC before starting!!;
#X text 25 399 While holding down B \, the Yaw and Roll of the wii
remote can be used to change the Feedback and the Triad Pitch Shift
\, respectively.;
#X text 24 465 While holding down A \, the Yaw and Roll of the wii
remote can be used to change the Modulation Index and the Offset \,
respectively.;
#X obj 790 100 output~;
