#N canvas 1 23 953 691 12;
#X obj 78 133 outlet;
#X obj 73 230 outlet;
#X obj 72 328 outlet;
#X obj 63 418 outlet;
#X obj 39 529 outlet;
#X obj 35 11 inlet;
#N canvas 0 22 450 278 (subpatch) 0;
#X array midi-pitch-distribution 60 float 2;
#X coords 0 1 60 0 600 140 2 0 0;
#X restore 22 569 graph;
#X obj 651 689 send midi-pitch-distribution;
#X obj 74 67 array random midi-pitch-distribution;
#X obj 70 173 array random midi-pitch-distribution;
#X obj 61 363 array random midi-pitch-distribution;
#X obj 68 263 array random midi-pitch-distribution;
#X obj 39 465 array random midi-pitch-distribution;
#X floatatom 537 145 5 0 0 0 - - -, f 5;
#X obj 534 111 f 60;
#X obj 71 295 +;
#X obj 69 199 +;
#X obj 76 99 +;
#X obj 61 387 +;
#X obj 37 495 +;
#X obj 35 36 t b;
#X obj 533 49 loadbang;
#X obj 651 569 loadbang;
#X msg 651 608 const 0 \, 0 1 \, 5 1 \, 7 1 \, 10 1 \, 12 1 \, 13 1
\, 16 1 \, 19 1 \, 3 1 \, 20 1 \, 22 1 \, 21 1 \, 29 1 \, 31 1 \, 41
1 \, 2 1 \, 3 1, f 29;
#X connect 5 0 20 0;
#X connect 8 0 17 0;
#X connect 9 0 16 0;
#X connect 10 0 18 0;
#X connect 11 0 15 0;
#X connect 12 0 19 0;
#X connect 13 0 15 1;
#X connect 13 0 16 1;
#X connect 13 0 17 1;
#X connect 13 0 18 1;
#X connect 13 0 19 1;
#X connect 14 0 13 0;
#X connect 15 0 2 0;
#X connect 16 0 1 0;
#X connect 17 0 0 0;
#X connect 18 0 3 0;
#X connect 19 0 4 0;
#X connect 20 0 11 0;
#X connect 20 0 9 0;
#X connect 20 0 8 0;
#X connect 20 0 10 0;
#X connect 20 0 12 0;
#X connect 21 0 14 0;
#X connect 22 0 23 0;
#X connect 23 0 7 0;
