#N canvas 1171 268 799 526 16;
#X msg 168 101 set \$1;
#X obj 168 72 r \$1;
#X obj 168 130 s \$1-set;
#X obj 431 71 r do-preset;
#X obj 482 228 f;
#X obj 431 100 t b b;
#X obj 365 134 symbol \$1;
#X obj 360 261 pack symbol 0;
#X obj 363 308 s done-preset;
#X connect 0 0 2 0;
#X connect 1 0 0 0;
#X connect 1 0 4 1;
#X connect 3 0 5 0;
#X connect 4 0 7 1;
#X connect 5 0 6 0;
#X connect 5 1 4 0;
#X connect 6 0 7 0;
#X connect 7 0 8 0;
