#N canvas 0 23 683 525 12;
#X obj 189 167 RandomPitchGen;
#X obj 190 129 metro;
#X floatatom 228 99 5 0 0 0 - - -, f 5;
#X obj 365 289 pack f 250;
#X obj 367 263 mtof;
#X obj 365 314 line~;
#X obj 370 186 *;
#X floatatom 370 236 5 0 0 0 - - -, f 5;
#X obj 370 211 / 30;
#X obj 208 324 voice-8;
#X obj 365 339 s~ centerFreq;
#X obj 168 414 hip~ 20;
#X obj 228 50 loadbang;
#X obj 185 99 inlet;
#X obj 168 439 outlet~;
#X obj 29 367 tabwrite~ output-8;
#X msg 228 74 300;
#X obj 81 217 voice-8;
#X obj 156 291 voice-8;
#X obj 107 259 voice-8;
#X connect 0 0 17 0;
#X connect 0 1 19 0;
#X connect 0 2 18 0;
#X connect 0 3 6 1;
#X connect 0 3 9 0;
#X connect 0 4 6 0;
#X connect 1 0 0 0;
#X connect 1 0 15 0;
#X connect 2 0 1 1;
#X connect 3 0 5 0;
#X connect 4 0 3 0;
#X connect 5 0 10 0;
#X connect 6 0 8 0;
#X connect 7 0 4 0;
#X connect 8 0 7 0;
#X connect 9 0 11 0;
#X connect 11 0 14 0;
#X connect 11 0 15 0;
#X connect 12 0 16 0;
#X connect 13 0 1 0;
#X connect 16 0 2 0;
#X connect 17 0 19 1;
#X connect 18 0 9 1;
#X connect 19 0 18 1;
