#N canvas 327 165 1525 634 12;
#X floatatom 140 222 5 0 0 0 Voice_Index voice-index-set -, f 5;
#X text 7 5 Voice Selector;
#X obj 89 26 r LeftBang;
#X obj 331 46 r RightBang;
#X obj 331 137 f;
#X obj 447 117 r voiceCount;
#X floatatom 447 142 5 0 0 0 - - -, f 5;
#X obj 385 159 mod;
#X obj 385 125 + 1;
#X obj 330 189 s voice-index-set;
#X obj 142 153 f;
#X obj 198 50 r voiceCount;
#X floatatom 198 75 5 0 0 0 - - -, f 5;
#X obj 137 95 mod;
#X obj 221 236 s voice-index-set;
#X obj 137 64 - 1;
#X msg 27 101 0;
#X obj 23 68 loadbang;
#X msg 262 110 0;
#X obj 258 77 loadbang;
#X obj 25 275 route 0 1 2 3 4 5 6 7 8 9 10;
#X obj 90 239 pack;
#X obj 634 52 r UpBang;
#X obj 722 51 r DownBang;
#X obj 662 183 route 0 1 2 3 4 5 6 7 8 9 10;
#X floatatom 938 107 5 0 0 0 Voice_Index voice-index-set -, f 5;
#X obj 663 153 list prepend;
#X msg 724 105 -;
#X msg 641 117 +;
#X obj 203 587 VoicesLib;
#X msg 244 191 0;
#X obj 245 168 loadbang;
#X obj 636 95 bng 15 250 50 0 empty empty empty 17 7 0 10 -262144 -1
-1;
#X obj 732 85 bng 15 250 50 0 empty empty empty 17 7 0 10 -262144 -1
-1;
#X obj 21 590 s~ voice-output;
#X obj 1084 411 voice-loader;
#X obj 1110 26 r ABang;
#X floatatom 1341 81 5 0 0 0 Voice_Index voice-index-set -, f 5;
#X obj 1112 121 list prepend;
#X obj 1112 174 route 0 1 2 3 4 5 6 7 8 9 10;
#X obj 12 419 voice-loader;
#X obj 765 410 voice-loader;
#X obj 336 414 voice-loader;
#X obj 119 418 voice-loader;
#X obj 657 410 voice-loader;
#X obj 222 415 voice-loader;
#X obj 977 411 voice-loader;
#X obj 871 411 voice-loader;
#X obj 552 412 voice-loader;
#X obj 443 413 voice-loader;
#X connect 0 0 21 1;
#X connect 0 0 21 0;
#X connect 2 0 10 0;
#X connect 3 0 4 0;
#X connect 4 0 8 0;
#X connect 4 0 9 0;
#X connect 4 0 10 1;
#X connect 5 0 6 0;
#X connect 6 0 7 1;
#X connect 7 0 4 1;
#X connect 8 0 7 0;
#X connect 10 0 15 0;
#X connect 10 0 14 0;
#X connect 10 0 4 1;
#X connect 11 0 12 0;
#X connect 12 0 13 1;
#X connect 13 0 10 1;
#X connect 15 0 13 0;
#X connect 16 0 10 1;
#X connect 17 0 16 0;
#X connect 18 0 4 1;
#X connect 19 0 18 0;
#X connect 20 0 40 0;
#X connect 20 1 43 0;
#X connect 20 2 45 0;
#X connect 20 3 42 0;
#X connect 20 4 49 0;
#X connect 20 5 46 0;
#X connect 20 6 47 0;
#X connect 20 7 41 0;
#X connect 20 8 44 0;
#X connect 20 9 48 0;
#X connect 20 10 35 0;
#X connect 21 0 20 0;
#X connect 22 0 32 0;
#X connect 23 0 33 0;
#X connect 24 0 40 1;
#X connect 24 1 43 1;
#X connect 24 2 45 1;
#X connect 24 3 42 1;
#X connect 24 4 49 1;
#X connect 24 5 48 1;
#X connect 24 6 44 1;
#X connect 24 7 41 1;
#X connect 24 8 47 1;
#X connect 24 9 46 1;
#X connect 24 10 35 1;
#X connect 25 0 26 1;
#X connect 26 0 24 0;
#X connect 27 0 26 0;
#X connect 28 0 26 0;
#X connect 30 0 14 0;
#X connect 31 0 30 0;
#X connect 32 0 28 0;
#X connect 33 0 27 0;
#X connect 35 0 34 0;
#X connect 36 0 38 0;
#X connect 37 0 38 1;
#X connect 38 0 39 0;
#X connect 39 0 40 2;
#X connect 39 1 43 2;
#X connect 39 2 45 2;
#X connect 39 3 42 2;
#X connect 39 4 49 2;
#X connect 39 5 48 2;
#X connect 39 6 44 2;
#X connect 39 7 41 2;
#X connect 39 8 47 2;
#X connect 39 9 46 2;
#X connect 39 10 35 2;
#X connect 40 0 34 0;
#X connect 41 0 34 0;
#X connect 42 0 34 0;
#X connect 43 0 34 0;
#X connect 44 0 34 0;
#X connect 45 0 34 0;
#X connect 46 0 34 0;
#X connect 47 0 34 0;
#X connect 48 0 34 0;
#X connect 49 0 34 0;
