#N canvas 0 23 1038 648 12;
#X obj 22 143 osc~;
#X obj 22 8 inlet;
#X obj 659 29 inlet~;
#X obj 703 623 outlet~;
#X obj 661 621 +~;
#X obj 22 47 mtof;
#X obj 22 72 / 2;
#X obj 21 474 cos~;
#X obj 145 27 t b;
#X obj 219 199 line~;
#X obj 217 163 pack 0 50;
#X obj 218 129 / 100;
#X obj 469 389 line~;
#X obj 467 353 pack 0 50;
#X obj 468 319 / 100;
#X obj 407 55 loadbang;
#X msg 254 75 20;
#X text 290 79 default values;
#X msg 408 232 1;
#X floatatom 217 99 5 0 0 1 index_of_modulation - -, f 5;
#X floatatom 467 280 5 0 0 1 offset - -, f 5;
#X obj 22 223 *~;
#X obj 21 412 +~;
#X obj 467 179 r offset;
#X obj 217 8 r ModIndex;
#X obj 141 579 adsr;
#X obj 20 576 vcf~ 7;
#X obj 40 545 r~ centerFreq;
#X obj 172 544 r quality;
#X obj 20 601 *~;
#X connect 0 0 21 0;
#X connect 1 0 5 0;
#X connect 1 0 8 0;
#X connect 2 0 4 1;
#X connect 4 0 3 0;
#X connect 5 0 6 0;
#X connect 6 0 0 0;
#X connect 7 0 26 0;
#X connect 8 0 25 0;
#X connect 9 0 21 1;
#X connect 10 0 9 0;
#X connect 11 0 10 0;
#X connect 12 0 22 1;
#X connect 13 0 12 0;
#X connect 14 0 13 0;
#X connect 15 0 16 0;
#X connect 15 0 18 0;
#X connect 16 0 19 0;
#X connect 18 0 20 0;
#X connect 19 0 11 0;
#X connect 20 0 14 0;
#X connect 21 0 22 0;
#X connect 22 0 7 0;
#X connect 23 0 20 0;
#X connect 24 0 19 0;
#X connect 25 0 29 1;
#X connect 26 0 29 0;
#X connect 27 0 26 1;
#X connect 28 0 26 2;
#X connect 29 0 4 0;
