#N canvas 272 206 1235 684 12;
#X obj 1036 709 outlet~;
#X obj 28 55 inlet;
#X msg 1104 609 open \$1 \, 1;
#X obj 1037 655 readsf~;
#X obj 879 631 bng 15 250 50 0 empty empty empty 17 7 0 10 -262144
-1 -1;
#X obj 1106 544 symbol;
#X obj 746 617 delay;
#X text 1024 340 start and stop the loop;
#X msg 1026 472 0;
#X obj 972 367 symbol;
#X obj 972 412 sel start stop;
#X text 371 98 delay time between loops;
#X obj 1026 440 t b;
#X msg 982 473 stop;
#X text 24 30 line number containing file to read in;
#X obj 28 80 f;
#X msg 28 105 line \$1 \, step;
#X obj 28 130 text sequence voicesLib;
#X floatatom 98 58 5 0 0 0 - - -, f 5;
#X obj 28 155 list split 2;
#X symbolatom 77 504 10 0 0 0 - - -, f 10;
#X obj 521 159 loadbang;
#X msg 520 189 800;
#X msg 520 189;
#X obj 400 228 f;
#X obj 247 243 f;
#X obj 777 501 r delay-\$0;
#X obj 596 210 s delay-\$0;
#X obj 318 337 s delay-\$0;
#X floatatom 619 389 5 0 0 0 - - -, f 5;
#X obj 292 87 inlet;
#X obj 967 327 inlet;
#X obj 292 112 symbol;
#X obj 292 154 sel - +;
#X obj 506 237 + 50;
#X obj 150 225 - 50;
#X connect 1 0 15 0;
#X connect 2 0 3 0;
#X connect 3 0 0 0;
#X connect 3 1 4 0;
#X connect 4 0 6 0;
#X connect 5 0 2 0;
#X connect 6 0 5 0;
#X connect 8 0 3 0;
#X connect 9 0 10 0;
#X connect 10 0 5 0;
#X connect 10 1 12 0;
#X connect 12 0 8 0;
#X connect 12 0 13 0;
#X connect 13 0 6 0;
#X connect 15 0 16 0;
#X connect 16 0 17 0;
#X connect 17 0 19 0;
#X connect 18 0 15 0;
#X connect 19 1 20 0;
#X connect 20 0 5 1;
#X connect 21 0 22 0;
#X connect 21 0 22 0;
#X connect 22 0 24 1;
#X connect 22 0 25 1;
#X connect 22 0 27 0;
#X connect 24 0 25 1;
#X connect 24 0 28 0;
#X connect 24 0 34 0;
#X connect 25 0 24 1;
#X connect 25 0 28 0;
#X connect 25 0 35 0;
#X connect 26 0 6 1;
#X connect 26 0 29 0;
#X connect 30 0 32 0;
#X connect 31 0 9 0;
#X connect 32 0 33 0;
#X connect 33 0 25 0;
#X connect 33 1 24 0;
#X connect 34 0 24 1;
#X connect 35 0 25 1;
