#N canvas 0 23 1280 701 12;
#X floatatom 140 222 5 0 0 0 Voice_Index voice-index-set -, f 5;
#X text 7 5 Voice Selector;
#X obj 89 26 r LeftBang;
#X obj 331 46 r RightBang;
#X obj 331 137 f;
#X obj 447 117 r voiceCount;
#X floatatom 447 142 5 0 0 0 - - -, f 5;
#X obj 385 159 mod;
#X obj 385 125 + 1;
#X obj 330 189 s voice-index-set;
#X obj 142 153 f;
#X obj 198 50 r voiceCount;
#X floatatom 198 75 5 0 0 0 - - -, f 5;
#X obj 137 95 mod;
#X obj 221 236 s voice-index-set;
#X obj 137 64 - 1;
#X msg 27 101 0;
#X obj 23 68 loadbang;
#X msg 262 110 0;
#X obj 258 77 loadbang;
#X obj 25 275 route 0 1 2 3 4 5 6 7 8 9 10;
#X obj 90 239 pack;
#X obj 599 17 r UpBang;
#X obj 687 16 r DownBang;
#X obj 627 148 route 0 1 2 3 4 5 6 7 8 9 10;
#X floatatom 756 72 5 0 0 2 Voice_Index voice-index-set -, f 5;
#X obj 628 118 list prepend;
#X msg 689 70 -;
#X msg 606 82 +;
#X obj 138 3 VoicesLib;
#X obj 224 185 loadbang;
#X obj 601 60 bng 15 250 50 0 empty empty empty 17 7 0 10 -262144 -1
-1;
#X obj 697 50 bng 15 250 50 0 empty empty empty 17 7 0 10 -262144 -1
-1;
#X obj 12 659 s~ voice-output;
#X obj 1084 411 voice-loader;
#X floatatom 1143 69 5 0 0 0 Voice_Index voice-index-set -, f 5;
#X obj 1019 108 list prepend;
#X obj 1019 161 route 0 1 2 3 4 5 6 7 8 9 10;
#X obj 12 419 voice-loader;
#X obj 765 410 voice-loader;
#X obj 336 414 voice-loader;
#X obj 119 418 voice-loader;
#X obj 657 410 voice-loader;
#X obj 222 415 voice-loader;
#X obj 977 411 voice-loader;
#X obj 871 411 voice-loader;
#X obj 552 412 voice-loader;
#X obj 442 414 voice-loader;
#X obj 978 71 bng 15 250 50 0 empty empty empty 17 7 0 10 -262144 -1
-1;
#X text 897 36 Play/Pause Current Track;
#X obj 1017 13 r HomeBang;
#N canvas 0 22 684 296 Triad 0;
#X obj 26 143 Combfilter;
#X obj 132 145 Combfilter;
#X obj 245 146 Combfilter;
#X obj 26 39 inlet~;
#X obj 121 41 inlet;
#X obj 170 88 + 4;
#X obj 302 60 + 7;
#X obj 387 25 inlet;
#X obj 31 208 outlet~;
#X floatatom 388 70 5 0 0 0 - - -, f 5;
#X obj 388 92 max 0;
#X obj 388 127 min 99;
#X msg 497 50 50;
#X obj 497 20 loadbang;
#X connect 0 0 8 0;
#X connect 1 0 8 0;
#X connect 2 0 8 0;
#X connect 3 0 0 0;
#X connect 3 0 1 0;
#X connect 3 0 2 0;
#X connect 4 0 0 1;
#X connect 4 0 5 0;
#X connect 4 0 6 0;
#X connect 5 0 1 1;
#X connect 6 0 2 1;
#X connect 7 0 9 0;
#X connect 9 0 10 0;
#X connect 10 0 11 0;
#X connect 11 0 0 2;
#X connect 11 0 1 2;
#X connect 11 0 2 2;
#X connect 12 0 9 0;
#X connect 13 0 12 0;
#X restore 12 619 pd Triad;
#N canvas 0 22 684 296 Triad 0;
#X obj 26 143 Combfilter;
#X obj 132 145 Combfilter;
#X obj 245 146 Combfilter;
#X obj 26 39 inlet~;
#X obj 121 41 inlet;
#X obj 170 88 + 4;
#X obj 302 60 + 7;
#X obj 387 25 inlet;
#X obj 31 208 outlet~;
#X floatatom 388 70 5 0 0 0 - - -, f 5;
#X obj 388 92 max 0;
#X obj 388 127 min 99;
#X msg 497 50 50;
#X obj 497 20 loadbang;
#X connect 0 0 8 0;
#X connect 1 0 8 0;
#X connect 2 0 8 0;
#X connect 3 0 0 0;
#X connect 3 0 1 0;
#X connect 3 0 2 0;
#X connect 4 0 0 1;
#X connect 4 0 5 0;
#X connect 4 0 6 0;
#X connect 5 0 1 1;
#X connect 6 0 2 1;
#X connect 7 0 9 0;
#X connect 9 0 10 0;
#X connect 10 0 11 0;
#X connect 11 0 0 2;
#X connect 11 0 1 2;
#X connect 11 0 2 2;
#X connect 12 0 9 0;
#X connect 13 0 12 0;
#X restore 120 619 pd Triad;
#N canvas 0 22 684 296 Triad 0;
#X obj 26 143 Combfilter;
#X obj 132 145 Combfilter;
#X obj 245 146 Combfilter;
#X obj 26 39 inlet~;
#X obj 121 41 inlet;
#X obj 170 88 + 4;
#X obj 302 60 + 7;
#X obj 387 25 inlet;
#X obj 31 208 outlet~;
#X floatatom 388 70 5 0 0 0 - - -, f 5;
#X obj 388 92 max 0;
#X obj 388 127 min 99;
#X msg 497 50 50;
#X obj 497 20 loadbang;
#X connect 0 0 8 0;
#X connect 1 0 8 0;
#X connect 2 0 8 0;
#X connect 3 0 0 0;
#X connect 3 0 1 0;
#X connect 3 0 2 0;
#X connect 4 0 0 1;
#X connect 4 0 5 0;
#X connect 4 0 6 0;
#X connect 5 0 1 1;
#X connect 6 0 2 1;
#X connect 7 0 9 0;
#X connect 9 0 10 0;
#X connect 10 0 11 0;
#X connect 11 0 0 2;
#X connect 11 0 1 2;
#X connect 11 0 2 2;
#X connect 12 0 9 0;
#X connect 13 0 12 0;
#X restore 220 621 pd Triad;
#N canvas 0 22 684 296 Triad 0;
#X obj 26 143 Combfilter;
#X obj 132 145 Combfilter;
#X obj 245 146 Combfilter;
#X obj 26 39 inlet~;
#X obj 121 41 inlet;
#X obj 170 88 + 4;
#X obj 302 60 + 7;
#X obj 387 25 inlet;
#X obj 31 208 outlet~;
#X floatatom 388 70 5 0 0 0 - - -, f 5;
#X obj 388 92 max 0;
#X obj 388 127 min 99;
#X msg 497 50 50;
#X obj 497 20 loadbang;
#X connect 0 0 8 0;
#X connect 1 0 8 0;
#X connect 2 0 8 0;
#X connect 3 0 0 0;
#X connect 3 0 1 0;
#X connect 3 0 2 0;
#X connect 4 0 0 1;
#X connect 4 0 5 0;
#X connect 4 0 6 0;
#X connect 5 0 1 1;
#X connect 6 0 2 1;
#X connect 7 0 9 0;
#X connect 9 0 10 0;
#X connect 10 0 11 0;
#X connect 11 0 0 2;
#X connect 11 0 1 2;
#X connect 11 0 2 2;
#X connect 12 0 9 0;
#X connect 13 0 12 0;
#X restore 336 622 pd Triad;
#N canvas 0 22 684 296 Triad 0;
#X obj 26 143 Combfilter;
#X obj 132 145 Combfilter;
#X obj 245 146 Combfilter;
#X obj 26 39 inlet~;
#X obj 121 41 inlet;
#X obj 170 88 + 4;
#X obj 302 60 + 7;
#X obj 387 25 inlet;
#X obj 31 208 outlet~;
#X floatatom 388 70 5 0 0 0 - - -, f 5;
#X obj 388 92 max 0;
#X obj 388 127 min 99;
#X msg 497 50 50;
#X obj 497 20 loadbang;
#X connect 0 0 8 0;
#X connect 1 0 8 0;
#X connect 2 0 8 0;
#X connect 3 0 0 0;
#X connect 3 0 1 0;
#X connect 3 0 2 0;
#X connect 4 0 0 1;
#X connect 4 0 5 0;
#X connect 4 0 6 0;
#X connect 5 0 1 1;
#X connect 6 0 2 1;
#X connect 7 0 9 0;
#X connect 9 0 10 0;
#X connect 10 0 11 0;
#X connect 11 0 0 2;
#X connect 11 0 1 2;
#X connect 11 0 2 2;
#X connect 12 0 9 0;
#X connect 13 0 12 0;
#X restore 444 623 pd Triad;
#N canvas 0 22 684 296 Triad 0;
#X obj 26 143 Combfilter;
#X obj 132 145 Combfilter;
#X obj 245 146 Combfilter;
#X obj 26 39 inlet~;
#X obj 121 41 inlet;
#X obj 170 88 + 4;
#X obj 302 60 + 7;
#X obj 387 25 inlet;
#X obj 31 208 outlet~;
#X floatatom 388 70 5 0 0 0 - - -, f 5;
#X obj 388 92 max 0;
#X obj 388 127 min 99;
#X msg 497 50 50;
#X obj 497 20 loadbang;
#X connect 0 0 8 0;
#X connect 1 0 8 0;
#X connect 2 0 8 0;
#X connect 3 0 0 0;
#X connect 3 0 1 0;
#X connect 3 0 2 0;
#X connect 4 0 0 1;
#X connect 4 0 5 0;
#X connect 4 0 6 0;
#X connect 5 0 1 1;
#X connect 6 0 2 1;
#X connect 7 0 9 0;
#X connect 9 0 10 0;
#X connect 10 0 11 0;
#X connect 11 0 0 2;
#X connect 11 0 1 2;
#X connect 11 0 2 2;
#X connect 12 0 9 0;
#X connect 13 0 12 0;
#X restore 549 623 pd Triad;
#N canvas 0 22 684 296 Triad 0;
#X obj 26 143 Combfilter;
#X obj 132 145 Combfilter;
#X obj 245 146 Combfilter;
#X obj 26 39 inlet~;
#X obj 121 41 inlet;
#X obj 170 88 + 4;
#X obj 302 60 + 7;
#X obj 387 25 inlet;
#X obj 31 208 outlet~;
#X floatatom 388 70 5 0 0 0 - - -, f 5;
#X obj 388 92 max 0;
#X obj 388 127 min 99;
#X msg 497 50 50;
#X obj 497 20 loadbang;
#X connect 0 0 8 0;
#X connect 1 0 8 0;
#X connect 2 0 8 0;
#X connect 3 0 0 0;
#X connect 3 0 1 0;
#X connect 3 0 2 0;
#X connect 4 0 0 1;
#X connect 4 0 5 0;
#X connect 4 0 6 0;
#X connect 5 0 1 1;
#X connect 6 0 2 1;
#X connect 7 0 9 0;
#X connect 9 0 10 0;
#X connect 10 0 11 0;
#X connect 11 0 0 2;
#X connect 11 0 1 2;
#X connect 11 0 2 2;
#X connect 12 0 9 0;
#X connect 13 0 12 0;
#X restore 661 623 pd Triad;
#N canvas 0 22 684 296 Triad 0;
#X obj 26 143 Combfilter;
#X obj 132 145 Combfilter;
#X obj 245 146 Combfilter;
#X obj 26 39 inlet~;
#X obj 121 41 inlet;
#X obj 170 88 + 4;
#X obj 302 60 + 7;
#X obj 387 25 inlet;
#X obj 31 208 outlet~;
#X floatatom 388 70 5 0 0 0 - - -, f 5;
#X obj 388 92 max 0;
#X obj 388 127 min 99;
#X msg 497 50 50;
#X obj 497 20 loadbang;
#X connect 0 0 8 0;
#X connect 1 0 8 0;
#X connect 2 0 8 0;
#X connect 3 0 0 0;
#X connect 3 0 1 0;
#X connect 3 0 2 0;
#X connect 4 0 0 1;
#X connect 4 0 5 0;
#X connect 4 0 6 0;
#X connect 5 0 1 1;
#X connect 6 0 2 1;
#X connect 7 0 9 0;
#X connect 9 0 10 0;
#X connect 10 0 11 0;
#X connect 11 0 0 2;
#X connect 11 0 1 2;
#X connect 11 0 2 2;
#X connect 12 0 9 0;
#X connect 13 0 12 0;
#X restore 769 623 pd Triad;
#N canvas 0 22 684 296 Triad 0;
#X obj 26 143 Combfilter;
#X obj 132 145 Combfilter;
#X obj 245 146 Combfilter;
#X obj 26 39 inlet~;
#X obj 121 41 inlet;
#X obj 170 88 + 4;
#X obj 302 60 + 7;
#X obj 387 25 inlet;
#X obj 31 208 outlet~;
#X floatatom 388 70 5 0 0 0 - - -, f 5;
#X obj 388 92 max 0;
#X obj 388 127 min 99;
#X msg 497 50 50;
#X obj 497 20 loadbang;
#X connect 0 0 8 0;
#X connect 1 0 8 0;
#X connect 2 0 8 0;
#X connect 3 0 0 0;
#X connect 3 0 1 0;
#X connect 3 0 2 0;
#X connect 4 0 0 1;
#X connect 4 0 5 0;
#X connect 4 0 6 0;
#X connect 5 0 1 1;
#X connect 6 0 2 1;
#X connect 7 0 9 0;
#X connect 9 0 10 0;
#X connect 10 0 11 0;
#X connect 11 0 0 2;
#X connect 11 0 1 2;
#X connect 11 0 2 2;
#X connect 12 0 9 0;
#X connect 13 0 12 0;
#X restore 866 623 pd Triad;
#N canvas 0 22 684 296 Triad 0;
#X obj 26 143 Combfilter;
#X obj 132 145 Combfilter;
#X obj 245 146 Combfilter;
#X obj 26 39 inlet~;
#X obj 121 41 inlet;
#X obj 170 88 + 4;
#X obj 302 60 + 7;
#X obj 387 25 inlet;
#X obj 31 208 outlet~;
#X floatatom 388 70 5 0 0 0 - - -, f 5;
#X obj 388 92 max 0;
#X obj 388 127 min 99;
#X msg 497 50 50;
#X obj 497 20 loadbang;
#X connect 0 0 8 0;
#X connect 1 0 8 0;
#X connect 2 0 8 0;
#X connect 3 0 0 0;
#X connect 3 0 1 0;
#X connect 3 0 2 0;
#X connect 4 0 0 1;
#X connect 4 0 5 0;
#X connect 4 0 6 0;
#X connect 5 0 1 1;
#X connect 6 0 2 1;
#X connect 7 0 9 0;
#X connect 9 0 10 0;
#X connect 10 0 11 0;
#X connect 11 0 0 2;
#X connect 11 0 1 2;
#X connect 11 0 2 2;
#X connect 12 0 9 0;
#X connect 13 0 12 0;
#X restore 980 625 pd Triad;
#N canvas 0 22 684 296 Triad 0;
#X obj 26 143 Combfilter;
#X obj 132 145 Combfilter;
#X obj 245 146 Combfilter;
#X obj 26 39 inlet~;
#X obj 121 41 inlet;
#X obj 170 88 + 4;
#X obj 302 60 + 7;
#X obj 387 25 inlet;
#X obj 31 208 outlet~;
#X floatatom 388 70 5 0 0 0 - - -, f 5;
#X obj 388 92 max 0;
#X obj 388 127 min 99;
#X msg 497 50 50;
#X obj 497 20 loadbang;
#X connect 0 0 8 0;
#X connect 1 0 8 0;
#X connect 2 0 8 0;
#X connect 3 0 0 0;
#X connect 3 0 1 0;
#X connect 3 0 2 0;
#X connect 4 0 0 1;
#X connect 4 0 5 0;
#X connect 4 0 6 0;
#X connect 5 0 1 1;
#X connect 6 0 2 1;
#X connect 7 0 9 0;
#X connect 9 0 10 0;
#X connect 10 0 11 0;
#X connect 11 0 0 2;
#X connect 11 0 1 2;
#X connect 11 0 2 2;
#X connect 12 0 9 0;
#X connect 13 0 12 0;
#X restore 1086 627 pd Triad;
#X obj 22 453 r pshift-1;
#X obj 129 452 r pshift-2;
#X obj 230 453 r pshift-3;
#X obj 347 450 r pshift-4;
#X obj 453 451 r pshift-5;
#X obj 556 452 r pshift-6;
#X obj 673 453 r pshift-7;
#X obj 779 453 r pshift-8;
#X obj 877 450 r pshift-9;
#X obj 987 449 r pshift-10;
#X obj 1099 448 r pshift-11;
#X obj 22 500 r fback-1;
#X obj 129 500 r fback-2;
#X obj 230 501 r fback-3;
#X obj 348 498 r fback-4;
#X obj 453 499 r fback-5;
#X obj 556 500 r fback-6;
#X obj 673 501 r fback-7;
#X obj 779 501 r fback-8;
#X obj 877 498 r fback-9;
#X obj 1000 497 r fback-10;
#X obj 1146 500 r fback-11;
#N canvas 0 22 491 446 PitchShiftSelector 0;
#X obj 90 110 route 0 1 2 3 4 5 6 7 8 9 10;
#X floatatom 212 15 5 0 0 0 Voice_Index voice-index-set -, f 5;
#X obj 93 80 list prepend;
#X obj 89 42 r PitchShift;
#X obj 20 415 s pshift-1;
#X obj 68 386 s pshift-2;
#X obj 104 356 s pshift-3;
#X obj 140 322 s pshift-4;
#X obj 170 292 s pshift-5;
#X obj 192 259 s pshift-6;
#X obj 215 231 s pshift-7;
#X obj 234 200 s pshift-8;
#X obj 257 170 s pshift-9;
#X obj 264 144 s pshift-10;
#X obj 354 137 s pshift-11;
#X connect 0 0 4 0;
#X connect 0 1 5 0;
#X connect 0 2 6 0;
#X connect 0 3 7 0;
#X connect 0 4 8 0;
#X connect 0 5 9 0;
#X connect 0 6 10 0;
#X connect 0 7 11 0;
#X connect 0 8 12 0;
#X connect 0 9 13 0;
#X connect 0 10 14 0;
#X connect 1 0 2 1;
#X connect 2 0 0 0;
#X connect 3 0 2 0;
#X restore 1017 659 pd PitchShiftSelector;
#N canvas 0 23 643 476 FeedbackSelector 0;
#X obj 124 128 route 0 1 2 3 4 5 6 7 8 9 10;
#X floatatom 341 74 5 0 0 0 Voice_Index voice-index-set -, f 5;
#X obj 127 98 list prepend;
#X obj 123 60 r Feedback;
#X obj 54 433 s fback-1;
#X obj 102 404 s fback-2;
#X obj 138 373 s fback-3;
#X obj 174 340 s fback-4;
#X obj 204 309 s fback-5;
#X obj 227 277 s fback-6;
#X obj 249 249 s fback-7;
#X obj 268 218 s fback-8;
#X obj 291 188 s fback-9;
#X obj 298 162 s fback-10;
#X obj 530 149 s fback-11;
#X connect 0 0 4 0;
#X connect 0 1 5 0;
#X connect 0 2 6 0;
#X connect 0 3 7 0;
#X connect 0 4 8 0;
#X connect 0 5 9 0;
#X connect 0 6 10 0;
#X connect 0 7 11 0;
#X connect 0 8 12 0;
#X connect 0 9 13 0;
#X connect 0 10 14 0;
#X connect 1 0 2 1;
#X connect 2 0 0 0;
#X connect 3 0 2 0;
#X restore 845 660 pd FeedbackSelector;
#X msg 223 207 0;
#X connect 0 0 21 1;
#X connect 0 0 21 0;
#X connect 2 0 10 0;
#X connect 3 0 4 0;
#X connect 4 0 8 0;
#X connect 4 0 9 0;
#X connect 4 0 10 1;
#X connect 5 0 6 0;
#X connect 6 0 7 1;
#X connect 7 0 4 1;
#X connect 8 0 7 0;
#X connect 10 0 15 0;
#X connect 10 0 14 0;
#X connect 10 0 4 1;
#X connect 11 0 12 0;
#X connect 12 0 13 1;
#X connect 13 0 10 1;
#X connect 15 0 13 0;
#X connect 16 0 10 1;
#X connect 17 0 16 0;
#X connect 18 0 4 1;
#X connect 19 0 18 0;
#X connect 20 0 38 0;
#X connect 20 1 41 0;
#X connect 20 2 43 0;
#X connect 20 3 40 0;
#X connect 20 4 47 0;
#X connect 20 5 44 0;
#X connect 20 6 45 0;
#X connect 20 7 39 0;
#X connect 20 8 42 0;
#X connect 20 9 46 0;
#X connect 20 10 34 0;
#X connect 21 0 20 0;
#X connect 22 0 31 0;
#X connect 23 0 32 0;
#X connect 24 0 38 1;
#X connect 24 1 41 1;
#X connect 24 2 43 1;
#X connect 24 3 40 1;
#X connect 24 4 47 1;
#X connect 24 5 46 1;
#X connect 24 6 42 1;
#X connect 24 7 39 1;
#X connect 24 8 45 1;
#X connect 24 9 44 1;
#X connect 24 10 34 1;
#X connect 25 0 26 1;
#X connect 26 0 24 0;
#X connect 27 0 26 0;
#X connect 28 0 26 0;
#X connect 30 0 86 0;
#X connect 31 0 28 0;
#X connect 32 0 27 0;
#X connect 34 0 61 0;
#X connect 35 0 36 1;
#X connect 36 0 37 0;
#X connect 37 0 38 2;
#X connect 37 1 41 2;
#X connect 37 2 43 2;
#X connect 37 3 40 2;
#X connect 37 4 47 2;
#X connect 37 5 46 2;
#X connect 37 6 42 2;
#X connect 37 7 39 2;
#X connect 37 8 45 2;
#X connect 37 9 44 2;
#X connect 37 10 34 2;
#X connect 38 0 51 0;
#X connect 39 0 58 0;
#X connect 40 0 54 0;
#X connect 41 0 52 0;
#X connect 42 0 57 0;
#X connect 43 0 53 0;
#X connect 44 0 60 0;
#X connect 45 0 59 0;
#X connect 46 0 56 0;
#X connect 47 0 55 0;
#X connect 48 0 36 0;
#X connect 50 0 36 0;
#X connect 51 0 33 0;
#X connect 52 0 33 0;
#X connect 53 0 33 0;
#X connect 54 0 33 0;
#X connect 55 0 33 0;
#X connect 56 0 33 0;
#X connect 58 0 33 0;
#X connect 59 0 33 0;
#X connect 60 0 33 0;
#X connect 61 0 33 0;
#X connect 62 0 51 1;
#X connect 63 0 52 1;
#X connect 64 0 53 1;
#X connect 65 0 54 1;
#X connect 66 0 55 1;
#X connect 67 0 56 1;
#X connect 68 0 57 1;
#X connect 69 0 58 1;
#X connect 70 0 59 1;
#X connect 71 0 60 1;
#X connect 72 0 61 1;
#X connect 73 0 51 2;
#X connect 74 0 52 2;
#X connect 75 0 53 2;
#X connect 76 0 54 2;
#X connect 77 0 55 2;
#X connect 78 0 56 2;
#X connect 79 0 57 2;
#X connect 80 0 58 2;
#X connect 81 0 59 2;
#X connect 82 0 60 2;
#X connect 83 0 61 2;
#X connect 86 0 14 0;
