#N canvas 715 286 778 583 12;
#X obj 554 536 outlet~;
#X obj 46 107 inlet;
#X text 35 88 file to read comes in as inlet;
#X msg 622 436 open \$1 \, 1;
#X obj 555 482 readsf~;
#X obj 397 458 bng 15 250 50 0 empty empty empty 17 7 0 10 -262144
-1 -1;
#X obj 627 401 symbol;
#X obj 264 444 delay;
#X obj 292 107 inlet;
#X obj 490 169 inlet;
#X text 542 167 start and stop the loop;
#X msg 544 299 0;
#X obj 490 194 symbol;
#X obj 490 239 sel start stop;
#X text 338 107 delay time between loops;
#X obj 544 267 t b;
#X msg 500 300 stop;
#X connect 1 0 6 0;
#X connect 3 0 4 0;
#X connect 4 0 0 0;
#X connect 4 1 5 0;
#X connect 5 0 7 0;
#X connect 6 0 3 0;
#X connect 7 0 6 0;
#X connect 8 0 7 1;
#X connect 9 0 12 0;
#X connect 11 0 4 0;
#X connect 12 0 13 0;
#X connect 13 0 6 0;
#X connect 13 1 15 0;
#X connect 15 0 11 0;
#X connect 15 0 16 0;
#X connect 16 0 7 0;
