#N canvas 187 190 1229 620 12;
#X floatatom 106 205 5 0 0 0 Voice_Index voice-index-set -, f 5;
#X text 7 5 Voice Selector;
#X obj 114 28 r LeftBang;
#X obj 509 34 r RightBang;
#X obj 508 134 f;
#X obj 625 105 r voiceCount;
#X floatatom 625 130 5 0 0 0 - - -, f 5;
#X obj 563 147 mod;
#X obj 563 113 + 1;
#X obj 508 177 s voice-index-set;
#X obj 118 121 f;
#X obj 259 48 r voiceCount;
#X floatatom 259 73 5 0 0 0 - - -, f 5;
#X obj 198 93 mod;
#X obj 119 169 s voice-index-set;
#X obj 198 62 - 1;
#X msg 27 101 0;
#X obj 23 68 loadbang;
#X msg 412 96 0;
#X obj 408 63 loadbang;
#X obj 19 348 voice-loader;
#X obj 25 275 route 0 1 2 3 4 5 6 7 8 9 10;
#X obj 126 347 voice-loader;
#X obj 229 344 voice-loader;
#X obj 984 340 voice-loader;
#X obj 343 343 voice-loader;
#X obj 878 340 voice-loader;
#X obj 772 339 voice-loader;
#X obj 664 339 voice-loader;
#X obj 559 341 voice-loader;
#X obj 450 342 voice-loader;
#X obj 1091 340 voice-loader;
#X obj 90 239 pack;
#X obj 209 401 output~;
#X connect 0 0 32 1;
#X connect 0 0 32 0;
#X connect 2 0 10 0;
#X connect 3 0 4 0;
#X connect 4 0 8 0;
#X connect 4 0 9 0;
#X connect 4 0 10 1;
#X connect 5 0 6 0;
#X connect 6 0 7 1;
#X connect 7 0 4 1;
#X connect 8 0 7 0;
#X connect 10 0 15 0;
#X connect 10 0 14 0;
#X connect 10 0 4 1;
#X connect 11 0 12 0;
#X connect 12 0 13 1;
#X connect 13 0 10 1;
#X connect 15 0 13 0;
#X connect 16 0 10 1;
#X connect 17 0 16 0;
#X connect 18 0 4 1;
#X connect 19 0 18 0;
#X connect 21 0 20 0;
#X connect 21 1 22 0;
#X connect 21 2 23 0;
#X connect 21 3 25 0;
#X connect 21 4 30 0;
#X connect 21 5 24 0;
#X connect 21 6 26 0;
#X connect 21 7 27 0;
#X connect 21 8 28 0;
#X connect 21 9 29 0;
#X connect 21 10 31 0;
#X connect 32 0 21 0;
