#N canvas 679 452 778 583 12;
#X obj 554 536 outlet~;
#X obj 28 55 inlet;
#X msg 622 436 open \$1 \, 1;
#X obj 555 482 readsf~;
#X obj 397 458 bng 15 250 50 0 empty empty empty 17 7 0 10 -262144
-1 -1;
#X obj 624 371 symbol;
#X obj 264 444 delay;
#X obj 292 107 inlet;
#X obj 490 169 inlet;
#X text 542 167 start and stop the loop;
#X msg 544 299 0;
#X obj 490 194 symbol;
#X obj 490 239 sel start stop;
#X text 338 107 delay time between loops;
#X obj 544 267 t b;
#X msg 500 300 stop;
#X text 24 30 line number containing file to read in;
#X obj 28 80 f;
#X msg 28 105 line \$1 \, step;
#X obj 28 130 text sequence voicesLib;
#X floatatom 98 58 5 0 0 0 - - -, f 5;
#X obj 28 155 list split 2;
#X symbolatom 76 225 10 0 0 0 - - -, f 10;
#X connect 1 0 17 0;
#X connect 2 0 3 0;
#X connect 3 0 0 0;
#X connect 3 1 4 0;
#X connect 4 0 6 0;
#X connect 5 0 2 0;
#X connect 6 0 5 0;
#X connect 7 0 6 1;
#X connect 8 0 11 0;
#X connect 10 0 3 0;
#X connect 11 0 12 0;
#X connect 12 0 5 0;
#X connect 12 1 14 0;
#X connect 14 0 10 0;
#X connect 14 0 15 0;
#X connect 15 0 6 0;
#X connect 17 0 18 0;
#X connect 18 0 19 0;
#X connect 19 0 21 0;
#X connect 20 0 17 0;
#X connect 21 1 22 0;
#X connect 22 0 5 1;
