#N canvas 0 22 1280 649 12;
#X obj 1123 621 outlet~;
#X obj 28 55 inlet;
#X msg 1191 521 open \$1 \, 1;
#X obj 1124 567 readsf~;
#X obj 1009 556 bng 15 250 50 0 empty empty empty 17 7 0 10 -262144
-1 -1;
#X obj 1193 456 symbol;
#X obj 876 542 delay;
#X text 1125 326 start and stop the loop;
#X msg 1113 384 0;
#X text 450 72 delay time between loops;
#X obj 1113 352 t b;
#X msg 1069 385 stop;
#X text 24 30 line number containing file to read in;
#X obj 28 80 f;
#X msg 28 105 line \$1 \, step;
#X obj 28 130 text sequence voicesLib;
#X obj 28 155 list split 2;
#X symbolatom 74 212 10 0 0 0 - - -, f 10;
#X obj 600 133 loadbang;
#X msg 599 163;
#X obj 479 202 f;
#X obj 384 204 f;
#X obj 907 426 r delay-\$0;
#X obj 675 184 s delay-\$0;
#X obj 397 311 s delay-\$0;
#X obj 371 61 inlet;
#X obj 1053 25 inlet;
#X obj 371 86 symbol;
#X obj 371 128 sel - +;
#X obj 562 201 + 100;
#X obj 287 204 - 100;
#X text 456 271 delay ± values are currently hardcoded. Change later
so that user can modify dynamically.;
#X obj 1056 92 tgl 30 0 empty empty empty 17 7 0 10 -258113 -1 -1 0
1;
#X obj 74 234 s voice-index-\$0;
#X obj 1197 418 r voice-index-\$0;
#X obj 906 47 loadbang;
#X msg 906 72 0;
#X obj 1059 324 sel 1 0;
#X msg 599 163 100;
#X connect 1 0 13 0;
#X connect 2 0 3 0;
#X connect 3 0 0 0;
#X connect 3 1 4 0;
#X connect 4 0 6 0;
#X connect 5 0 2 0;
#X connect 6 0 5 0;
#X connect 8 0 3 0;
#X connect 10 0 8 0;
#X connect 10 0 11 0;
#X connect 11 0 6 0;
#X connect 13 0 14 0;
#X connect 14 0 15 0;
#X connect 15 0 16 0;
#X connect 16 1 17 0;
#X connect 17 0 33 0;
#X connect 18 0 38 0;
#X connect 18 0 38 0;
#X connect 20 0 21 1;
#X connect 20 0 24 0;
#X connect 20 0 29 0;
#X connect 21 0 20 1;
#X connect 21 0 24 0;
#X connect 21 0 30 0;
#X connect 22 0 6 1;
#X connect 25 0 27 0;
#X connect 26 0 32 0;
#X connect 27 0 28 0;
#X connect 28 0 21 0;
#X connect 28 1 20 0;
#X connect 29 0 20 1;
#X connect 30 0 21 1;
#X connect 32 0 37 0;
#X connect 34 0 5 1;
#X connect 35 0 36 0;
#X connect 36 0 32 0;
#X connect 37 0 5 0;
#X connect 37 1 10 0;
#X connect 38 0 23 0;
#X connect 38 0 21 0;
#X connect 38 0 20 0;
