#N canvas 0 23 1280 701 12;
#X floatatom 140 222 5 0 0 0 Voice_Index voice-index-set -, f 5;
#X text 7 5 Voice Selector;
#X obj 89 26 r LeftBang;
#X obj 331 46 r RightBang;
#X obj 331 137 f;
#X obj 447 117 r voiceCount;
#X floatatom 447 142 5 0 0 0 - - -, f 5;
#X obj 385 159 mod;
#X obj 385 125 + 1;
#X obj 330 189 s voice-index-set;
#X obj 142 153 f;
#X obj 198 50 r voiceCount;
#X floatatom 198 75 5 0 0 0 - - -, f 5;
#X obj 137 95 mod;
#X obj 221 236 s voice-index-set;
#X obj 137 64 - 1;
#X msg 27 101 0;
#X obj 23 68 loadbang;
#X msg 262 110 0;
#X obj 258 77 loadbang;
#X obj 25 275 route 0 1 2 3 4 5 6 7 8 9 10;
#X obj 90 239 pack;
#X obj 599 17 r UpBang;
#X obj 687 16 r DownBang;
#X obj 627 148 route 0 1 2 3 4 5 6 7 8 9 10;
#X floatatom 756 72 5 0 0 2 Voice_Index voice-index-set -, f 5;
#X obj 628 118 list prepend;
#X msg 689 70 -;
#X msg 606 82 +;
#X obj 138 3 VoicesLib;
#X obj 224 185 loadbang;
#X obj 601 60 bng 15 250 50 0 empty empty empty 17 7 0 10 -262144 -1
-1;
#X obj 697 50 bng 15 250 50 0 empty empty empty 17 7 0 10 -262144 -1
-1;
#X obj 9 827 s~ voice-output;
#X floatatom 1143 69 5 0 0 0 Voice_Index voice-index-set -, f 5;
#X obj 1019 108 list prepend;
#X obj 1019 161 route 0 1 2 3 4 5 6 7 8 9 10;
#X obj 657 410 voice-loader;
#X obj 978 71 bng 15 250 50 0 empty empty empty 17 7 0 10 -262144 -1
-1;
#X text 897 36 Play/Pause Current Track;
#X obj 1017 13 r HomeBang;
#N canvas 0 22 684 296 Triad 0;
#X obj 26 143 Combfilter;
#X obj 132 145 Combfilter;
#X obj 245 146 Combfilter;
#X obj 26 39 inlet~;
#X obj 121 41 inlet;
#X obj 170 88 + 4;
#X obj 302 60 + 7;
#X obj 387 25 inlet;
#X obj 31 208 outlet~;
#X floatatom 388 70 5 0 0 0 - - -, f 5;
#X obj 388 92 max 0;
#X obj 388 127 min 99;
#X msg 497 50 50;
#X obj 497 20 loadbang;
#X connect 0 0 8 0;
#X connect 1 0 8 0;
#X connect 2 0 8 0;
#X connect 3 0 0 0;
#X connect 3 0 1 0;
#X connect 3 0 2 0;
#X connect 4 0 0 1;
#X connect 4 0 5 0;
#X connect 4 0 6 0;
#X connect 5 0 1 1;
#X connect 6 0 2 1;
#X connect 7 0 9 0;
#X connect 9 0 10 0;
#X connect 10 0 11 0;
#X connect 11 0 0 2;
#X connect 11 0 1 2;
#X connect 11 0 2 2;
#X connect 12 0 9 0;
#X connect 13 0 12 0;
#X restore 18 621 pd Triad;
#N canvas 0 22 684 296 Triad 0;
#X obj 26 143 Combfilter;
#X obj 132 145 Combfilter;
#X obj 245 146 Combfilter;
#X obj 26 39 inlet~;
#X obj 121 41 inlet;
#X obj 170 88 + 4;
#X obj 302 60 + 7;
#X obj 387 25 inlet;
#X obj 31 208 outlet~;
#X floatatom 388 70 5 0 0 0 - - -, f 5;
#X obj 388 92 max 0;
#X obj 388 127 min 99;
#X msg 497 50 50;
#X obj 497 20 loadbang;
#X connect 0 0 8 0;
#X connect 1 0 8 0;
#X connect 2 0 8 0;
#X connect 3 0 0 0;
#X connect 3 0 1 0;
#X connect 3 0 2 0;
#X connect 4 0 0 1;
#X connect 4 0 5 0;
#X connect 4 0 6 0;
#X connect 5 0 1 1;
#X connect 6 0 2 1;
#X connect 7 0 9 0;
#X connect 9 0 10 0;
#X connect 10 0 11 0;
#X connect 11 0 0 2;
#X connect 11 0 1 2;
#X connect 11 0 2 2;
#X connect 12 0 9 0;
#X connect 13 0 12 0;
#X restore 126 621 pd Triad;
#N canvas 0 22 684 296 Triad 0;
#X obj 26 143 Combfilter;
#X obj 132 145 Combfilter;
#X obj 245 146 Combfilter;
#X obj 26 39 inlet~;
#X obj 121 41 inlet;
#X obj 170 88 + 4;
#X obj 302 60 + 7;
#X obj 387 25 inlet;
#X obj 31 208 outlet~;
#X floatatom 388 70 5 0 0 0 - - -, f 5;
#X obj 388 92 max 0;
#X obj 388 127 min 99;
#X msg 497 50 50;
#X obj 497 20 loadbang;
#X connect 0 0 8 0;
#X connect 1 0 8 0;
#X connect 2 0 8 0;
#X connect 3 0 0 0;
#X connect 3 0 1 0;
#X connect 3 0 2 0;
#X connect 4 0 0 1;
#X connect 4 0 5 0;
#X connect 4 0 6 0;
#X connect 5 0 1 1;
#X connect 6 0 2 1;
#X connect 7 0 9 0;
#X connect 9 0 10 0;
#X connect 10 0 11 0;
#X connect 11 0 0 2;
#X connect 11 0 1 2;
#X connect 11 0 2 2;
#X connect 12 0 9 0;
#X connect 13 0 12 0;
#X restore 220 621 pd Triad;
#N canvas 0 22 684 296 Triad 0;
#X obj 26 143 Combfilter;
#X obj 132 145 Combfilter;
#X obj 245 146 Combfilter;
#X obj 26 39 inlet~;
#X obj 121 41 inlet;
#X obj 170 88 + 4;
#X obj 302 60 + 7;
#X obj 387 25 inlet;
#X obj 31 208 outlet~;
#X floatatom 388 70 5 0 0 0 - - -, f 5;
#X obj 388 92 max 0;
#X obj 388 127 min 99;
#X msg 497 50 50;
#X obj 497 20 loadbang;
#X connect 0 0 8 0;
#X connect 1 0 8 0;
#X connect 2 0 8 0;
#X connect 3 0 0 0;
#X connect 3 0 1 0;
#X connect 3 0 2 0;
#X connect 4 0 0 1;
#X connect 4 0 5 0;
#X connect 4 0 6 0;
#X connect 5 0 1 1;
#X connect 6 0 2 1;
#X connect 7 0 9 0;
#X connect 9 0 10 0;
#X connect 10 0 11 0;
#X connect 11 0 0 2;
#X connect 11 0 1 2;
#X connect 11 0 2 2;
#X connect 12 0 9 0;
#X connect 13 0 12 0;
#X restore 336 622 pd Triad;
#N canvas 0 22 684 296 Triad 0;
#X obj 26 143 Combfilter;
#X obj 132 145 Combfilter;
#X obj 245 146 Combfilter;
#X obj 26 39 inlet~;
#X obj 121 41 inlet;
#X obj 170 88 + 4;
#X obj 302 60 + 7;
#X obj 387 25 inlet;
#X obj 31 208 outlet~;
#X floatatom 388 70 5 0 0 0 - - -, f 5;
#X obj 388 92 max 0;
#X obj 388 127 min 99;
#X msg 497 50 50;
#X obj 497 20 loadbang;
#X connect 0 0 8 0;
#X connect 1 0 8 0;
#X connect 2 0 8 0;
#X connect 3 0 0 0;
#X connect 3 0 1 0;
#X connect 3 0 2 0;
#X connect 4 0 0 1;
#X connect 4 0 5 0;
#X connect 4 0 6 0;
#X connect 5 0 1 1;
#X connect 6 0 2 1;
#X connect 7 0 9 0;
#X connect 9 0 10 0;
#X connect 10 0 11 0;
#X connect 11 0 0 2;
#X connect 11 0 1 2;
#X connect 11 0 2 2;
#X connect 12 0 9 0;
#X connect 13 0 12 0;
#X restore 441 620 pd Triad;
#N canvas 0 22 684 296 Triad 0;
#X obj 26 143 Combfilter;
#X obj 132 145 Combfilter;
#X obj 245 146 Combfilter;
#X obj 26 39 inlet~;
#X obj 121 41 inlet;
#X obj 170 88 + 4;
#X obj 302 60 + 7;
#X obj 387 25 inlet;
#X obj 31 208 outlet~;
#X floatatom 388 70 5 0 0 0 - - -, f 5;
#X obj 388 92 max 0;
#X obj 388 127 min 99;
#X msg 497 50 50;
#X obj 497 20 loadbang;
#X connect 0 0 8 0;
#X connect 1 0 8 0;
#X connect 2 0 8 0;
#X connect 3 0 0 0;
#X connect 3 0 1 0;
#X connect 3 0 2 0;
#X connect 4 0 0 1;
#X connect 4 0 5 0;
#X connect 4 0 6 0;
#X connect 5 0 1 1;
#X connect 6 0 2 1;
#X connect 7 0 9 0;
#X connect 9 0 10 0;
#X connect 10 0 11 0;
#X connect 11 0 0 2;
#X connect 11 0 1 2;
#X connect 11 0 2 2;
#X connect 12 0 9 0;
#X connect 13 0 12 0;
#X restore 549 623 pd Triad;
#N canvas 0 22 684 296 Triad 0;
#X obj 26 143 Combfilter;
#X obj 132 145 Combfilter;
#X obj 245 146 Combfilter;
#X obj 26 39 inlet~;
#X obj 121 41 inlet;
#X obj 170 88 + 4;
#X obj 302 60 + 7;
#X obj 387 25 inlet;
#X obj 31 208 outlet~;
#X floatatom 388 70 5 0 0 0 - - -, f 5;
#X obj 388 92 max 0;
#X obj 388 127 min 99;
#X msg 497 50 50;
#X obj 497 20 loadbang;
#X connect 0 0 8 0;
#X connect 1 0 8 0;
#X connect 2 0 8 0;
#X connect 3 0 0 0;
#X connect 3 0 1 0;
#X connect 3 0 2 0;
#X connect 4 0 0 1;
#X connect 4 0 5 0;
#X connect 4 0 6 0;
#X connect 5 0 1 1;
#X connect 6 0 2 1;
#X connect 7 0 9 0;
#X connect 9 0 10 0;
#X connect 10 0 11 0;
#X connect 11 0 0 2;
#X connect 11 0 1 2;
#X connect 11 0 2 2;
#X connect 12 0 9 0;
#X connect 13 0 12 0;
#X restore 661 623 pd Triad;
#N canvas 0 22 684 296 Triad 0;
#X obj 26 143 Combfilter;
#X obj 132 145 Combfilter;
#X obj 245 146 Combfilter;
#X obj 26 39 inlet~;
#X obj 121 41 inlet;
#X obj 170 88 + 4;
#X obj 302 60 + 7;
#X obj 387 25 inlet;
#X obj 31 208 outlet~;
#X floatatom 388 70 5 0 0 0 - - -, f 5;
#X obj 388 92 max 0;
#X obj 388 127 min 99;
#X msg 497 50 50;
#X obj 497 20 loadbang;
#X connect 0 0 8 0;
#X connect 1 0 8 0;
#X connect 2 0 8 0;
#X connect 3 0 0 0;
#X connect 3 0 1 0;
#X connect 3 0 2 0;
#X connect 4 0 0 1;
#X connect 4 0 5 0;
#X connect 4 0 6 0;
#X connect 5 0 1 1;
#X connect 6 0 2 1;
#X connect 7 0 9 0;
#X connect 9 0 10 0;
#X connect 10 0 11 0;
#X connect 11 0 0 2;
#X connect 11 0 1 2;
#X connect 11 0 2 2;
#X connect 12 0 9 0;
#X connect 13 0 12 0;
#X restore 769 623 pd Triad;
#N canvas 0 22 684 296 Triad 1;
#X obj 26 143 Combfilter;
#X obj 132 145 Combfilter;
#X obj 245 146 Combfilter;
#X obj 26 39 inlet~;
#X obj 121 41 inlet;
#X obj 170 88 + 4;
#X obj 302 60 + 7;
#X obj 387 25 inlet;
#X obj 31 208 outlet~;
#X floatatom 388 70 5 0 0 0 - - -, f 5;
#X obj 388 92 max 0;
#X obj 388 127 min 99;
#X msg 497 50 50;
#X obj 497 20 loadbang;
#X connect 0 0 8 0;
#X connect 1 0 8 0;
#X connect 2 0 8 0;
#X connect 3 0 0 0;
#X connect 3 0 1 0;
#X connect 3 0 2 0;
#X connect 4 0 0 1;
#X connect 4 0 5 0;
#X connect 4 0 6 0;
#X connect 5 0 1 1;
#X connect 6 0 2 1;
#X connect 7 0 9 0;
#X connect 9 0 10 0;
#X connect 10 0 11 0;
#X connect 11 0 0 2;
#X connect 11 0 1 2;
#X connect 11 0 2 2;
#X connect 12 0 9 0;
#X connect 13 0 12 0;
#X restore 866 623 pd Triad;
#N canvas 0 22 684 296 Triad 0;
#X obj 26 143 Combfilter;
#X obj 132 145 Combfilter;
#X obj 245 146 Combfilter;
#X obj 26 39 inlet~;
#X obj 121 41 inlet;
#X obj 170 88 + 4;
#X obj 302 60 + 7;
#X obj 387 25 inlet;
#X obj 31 208 outlet~;
#X floatatom 388 70 5 0 0 0 - - -, f 5;
#X obj 388 92 max 0;
#X obj 388 127 min 99;
#X msg 497 50 50;
#X obj 497 20 loadbang;
#X connect 0 0 8 0;
#X connect 1 0 8 0;
#X connect 2 0 8 0;
#X connect 3 0 0 0;
#X connect 3 0 1 0;
#X connect 3 0 2 0;
#X connect 4 0 0 1;
#X connect 4 0 5 0;
#X connect 4 0 6 0;
#X connect 5 0 1 1;
#X connect 6 0 2 1;
#X connect 7 0 9 0;
#X connect 9 0 10 0;
#X connect 10 0 11 0;
#X connect 11 0 0 2;
#X connect 11 0 1 2;
#X connect 11 0 2 2;
#X connect 12 0 9 0;
#X connect 13 0 12 0;
#X restore 980 625 pd Triad;
#N canvas 0 22 684 296 Triad 0;
#X obj 26 143 Combfilter;
#X obj 132 145 Combfilter;
#X obj 245 146 Combfilter;
#X obj 26 39 inlet~;
#X obj 121 41 inlet;
#X obj 170 88 + 4;
#X obj 302 60 + 7;
#X obj 387 25 inlet;
#X obj 31 208 outlet~;
#X floatatom 388 70 5 0 0 0 - - -, f 5;
#X obj 388 92 max 0;
#X obj 388 127 min 99;
#X msg 497 50 50;
#X obj 497 20 loadbang;
#X connect 0 0 8 0;
#X connect 1 0 8 0;
#X connect 2 0 8 0;
#X connect 3 0 0 0;
#X connect 3 0 1 0;
#X connect 3 0 2 0;
#X connect 4 0 0 1;
#X connect 4 0 5 0;
#X connect 4 0 6 0;
#X connect 5 0 1 1;
#X connect 6 0 2 1;
#X connect 7 0 9 0;
#X connect 9 0 10 0;
#X connect 10 0 11 0;
#X connect 11 0 0 2;
#X connect 11 0 1 2;
#X connect 11 0 2 2;
#X connect 12 0 9 0;
#X connect 13 0 12 0;
#X restore 1086 627 pd Triad;
#X obj 22 453 r pshift-1;
#X obj 129 452 r pshift-2;
#X obj 230 453 r pshift-3;
#X obj 347 450 r pshift-4;
#X obj 453 451 r pshift-5;
#X obj 556 452 r pshift-6;
#X obj 673 453 r pshift-7;
#X obj 779 453 r pshift-8;
#X obj 877 450 r pshift-9;
#X obj 987 449 r pshift-10;
#X obj 1099 448 r pshift-11;
#X obj 22 500 r fback-1;
#X obj 129 500 r fback-2;
#X obj 230 501 r fback-3;
#X obj 348 498 r fback-4;
#X obj 453 499 r fback-5;
#X obj 556 500 r fback-6;
#X obj 673 501 r fback-7;
#X obj 779 501 r fback-8;
#X obj 877 498 r fback-9;
#X obj 1000 497 r fback-10;
#X obj 1146 500 r fback-11;
#N canvas 0 22 491 446 PitchShiftSelector 0;
#X obj 90 110 route 0 1 2 3 4 5 6 7 8 9 10;
#X floatatom 212 15 5 0 0 0 Voice_Index voice-index-set -, f 5;
#X obj 93 80 list prepend;
#X obj 89 42 r PitchShift;
#X obj 20 415 s pshift-1;
#X obj 68 386 s pshift-2;
#X obj 104 356 s pshift-3;
#X obj 140 322 s pshift-4;
#X obj 170 292 s pshift-5;
#X obj 192 259 s pshift-6;
#X obj 215 231 s pshift-7;
#X obj 234 200 s pshift-8;
#X obj 257 170 s pshift-9;
#X obj 264 144 s pshift-10;
#X obj 354 137 s pshift-11;
#X connect 0 0 4 0;
#X connect 0 1 5 0;
#X connect 0 2 6 0;
#X connect 0 3 7 0;
#X connect 0 4 8 0;
#X connect 0 5 9 0;
#X connect 0 6 10 0;
#X connect 0 7 11 0;
#X connect 0 8 12 0;
#X connect 0 9 13 0;
#X connect 0 10 14 0;
#X connect 1 0 2 1;
#X connect 2 0 0 0;
#X connect 3 0 2 0;
#X restore 1029 820 pd PitchShiftSelector;
#N canvas 0 23 643 476 FeedbackSelector 0;
#X obj 124 128 route 0 1 2 3 4 5 6 7 8 9 10;
#X floatatom 341 74 5 0 0 0 Voice_Index voice-index-set -, f 5;
#X obj 127 98 list prepend;
#X obj 123 60 r Feedback;
#X obj 54 433 s fback-1;
#X obj 102 404 s fback-2;
#X obj 138 373 s fback-3;
#X obj 174 340 s fback-4;
#X obj 204 309 s fback-5;
#X obj 227 277 s fback-6;
#X obj 249 249 s fback-7;
#X obj 268 218 s fback-8;
#X obj 291 188 s fback-9;
#X obj 298 162 s fback-10;
#X obj 530 149 s fback-11;
#X connect 0 0 4 0;
#X connect 0 1 5 0;
#X connect 0 2 6 0;
#X connect 0 3 7 0;
#X connect 0 4 8 0;
#X connect 0 5 9 0;
#X connect 0 6 10 0;
#X connect 0 7 11 0;
#X connect 0 8 12 0;
#X connect 0 9 13 0;
#X connect 0 10 14 0;
#X connect 1 0 2 1;
#X connect 2 0 0 0;
#X connect 3 0 2 0;
#X restore 867 820 pd FeedbackSelector;
#X msg 223 207 0;
#X obj 1084 411 voice-loader;
#X obj 12 419 voice-loader;
#X obj 765 410 voice-loader;
#X obj 336 414 voice-loader;
#X obj 119 418 voice-loader;
#X obj 222 415 voice-loader;
#X obj 977 411 voice-loader;
#X obj 871 411 voice-loader;
#X obj 552 412 voice-loader;
#X obj 442 414 voice-loader;
#X obj 22 753 Modulation;
#X obj 131 751 Modulation;
#X obj 244 750 Modulation;
#X obj 359 751 Modulation;
#X obj 475 752 Modulation;
#X obj 580 751 Modulation;
#X obj 692 754 Modulation;
#X obj 803 752 Modulation;
#X obj 922 754 Modulation;
#X obj 1158 746 Modulation;
#X obj 1041 749 Modulation;
#X obj 29 659 r index-1;
#X obj 47 689 r offset-1;
#X obj 131 661 r index-2;
#X obj 149 692 r offset-2;
#X obj 240 654 r index-3;
#X obj 258 686 r offset-3;
#X obj 346 658 r index-4;
#X obj 364 688 r offset-4;
#X obj 459 653 r index-5;
#X obj 477 682 r offset-5;
#X obj 570 655 r index-6;
#X obj 588 685 r offset-6;
#X obj 681 651 r index-7;
#X obj 699 681 r offset-7;
#X obj 796 646 r index-8;
#X obj 814 676 r offset-8;
#X obj 904 654 r index-9;
#X obj 922 684 r offset-9;
#X obj 1010 657 r index-10;
#X obj 1028 687 r offset-10;
#X obj 1132 656 r index-11;
#X obj 1150 686 r offset-11;
#N canvas 0 22 709 510 IndexSelector 0;
#X obj 98 80 route 0 1 2 3 4 5 6 7 8 9 10;
#X floatatom 315 26 5 0 0 0 Voice_Index voice-index-set -, f 5;
#X obj 101 50 list prepend;
#X obj 97 12 r Feedback;
#X obj 28 385 s index-1;
#X obj 76 357 s index-2;
#X obj 112 325 s index-3;
#X obj 148 292 s index-4;
#X obj 179 261 s index-5;
#X obj 201 229 s index-6;
#X obj 223 201 s index-7;
#X obj 242 170 s index-8;
#X obj 265 140 s index-9;
#X obj 272 114 s index-10;
#X obj 379 100 s index-11;
#X connect 0 0 4 0;
#X connect 0 1 5 0;
#X connect 0 2 6 0;
#X connect 0 3 7 0;
#X connect 0 4 8 0;
#X connect 0 5 9 0;
#X connect 0 6 10 0;
#X connect 0 7 11 0;
#X connect 0 8 12 0;
#X connect 0 9 13 0;
#X connect 0 10 14 0;
#X connect 1 0 2 1;
#X connect 2 0 0 0;
#X connect 3 0 2 0;
#X restore 731 820 pd IndexSelector;
#N canvas 0 22 536 424 OffsetSelector 0;
#X obj 77 78 route 0 1 2 3 4 5 6 7 8 9 10;
#X floatatom 294 24 5 0 0 0 Voice_Index voice-index-set -, f 5;
#X obj 80 48 list prepend;
#X obj 7 382 s offset-1;
#X obj 55 355 s offset-2;
#X obj 91 323 s offset-3;
#X obj 127 290 s offset-4;
#X obj 158 259 s offset-5;
#X obj 180 227 s offset-6;
#X obj 202 200 s offset-7;
#X obj 220 167 s offset-8;
#X obj 245 138 s offset-9;
#X obj 251 112 s offset-10;
#X obj 358 98 s offset-11;
#X obj 76 10 r Offset;
#X connect 0 0 3 0;
#X connect 0 1 4 0;
#X connect 0 2 5 0;
#X connect 0 3 6 0;
#X connect 0 4 7 0;
#X connect 0 5 8 0;
#X connect 0 6 9 0;
#X connect 0 7 10 0;
#X connect 0 8 11 0;
#X connect 0 9 12 0;
#X connect 0 10 13 0;
#X connect 1 0 2 1;
#X connect 2 0 0 0;
#X connect 14 0 2 0;
#X restore 587 820 pd OffsetSelector;
#X obj 1186 34 tgl 15 0 empty empty empty 17 7 0 10 -262144 -1 -1 1
1;
#X connect 0 0 21 1;
#X connect 0 0 21 0;
#X connect 2 0 10 0;
#X connect 3 0 4 0;
#X connect 4 0 8 0;
#X connect 4 0 9 0;
#X connect 4 0 10 1;
#X connect 5 0 6 0;
#X connect 6 0 7 1;
#X connect 7 0 4 1;
#X connect 8 0 7 0;
#X connect 10 0 15 0;
#X connect 10 0 14 0;
#X connect 10 0 4 1;
#X connect 11 0 12 0;
#X connect 12 0 13 1;
#X connect 13 0 10 1;
#X connect 15 0 13 0;
#X connect 16 0 10 1;
#X connect 17 0 16 0;
#X connect 18 0 4 1;
#X connect 19 0 18 0;
#X connect 20 0 78 0;
#X connect 20 1 81 0;
#X connect 20 2 82 0;
#X connect 20 3 80 0;
#X connect 20 4 86 0;
#X connect 20 5 83 0;
#X connect 20 6 84 0;
#X connect 20 7 79 0;
#X connect 20 8 37 0;
#X connect 20 9 85 0;
#X connect 20 10 77 0;
#X connect 21 0 20 0;
#X connect 22 0 31 0;
#X connect 23 0 32 0;
#X connect 24 0 78 1;
#X connect 24 1 81 1;
#X connect 24 2 82 1;
#X connect 24 3 80 1;
#X connect 24 4 86 1;
#X connect 24 5 85 1;
#X connect 24 6 37 1;
#X connect 24 7 79 1;
#X connect 24 8 84 1;
#X connect 24 9 83 1;
#X connect 24 10 77 1;
#X connect 25 0 26 1;
#X connect 26 0 24 0;
#X connect 27 0 26 0;
#X connect 28 0 26 0;
#X connect 30 0 76 0;
#X connect 31 0 28 0;
#X connect 32 0 27 0;
#X connect 34 0 35 1;
#X connect 35 0 36 0;
#X connect 36 0 78 2;
#X connect 36 1 81 2;
#X connect 36 2 82 2;
#X connect 36 3 80 2;
#X connect 36 4 86 2;
#X connect 36 5 85 2;
#X connect 36 6 37 2;
#X connect 36 7 79 2;
#X connect 36 8 84 2;
#X connect 36 9 83 2;
#X connect 36 10 77 2;
#X connect 37 0 47 0;
#X connect 38 0 35 0;
#X connect 40 0 35 0;
#X connect 40 0 122 0;
#X connect 41 0 87 0;
#X connect 42 0 88 0;
#X connect 43 0 89 0;
#X connect 44 0 90 0;
#X connect 45 0 91 0;
#X connect 46 0 92 0;
#X connect 47 0 93 0;
#X connect 48 0 94 0;
#X connect 49 0 95 0;
#X connect 50 0 97 0;
#X connect 51 0 96 0;
#X connect 52 0 41 1;
#X connect 53 0 42 1;
#X connect 54 0 43 1;
#X connect 55 0 44 1;
#X connect 56 0 45 1;
#X connect 57 0 46 1;
#X connect 58 0 47 1;
#X connect 59 0 48 1;
#X connect 60 0 49 1;
#X connect 61 0 50 1;
#X connect 62 0 51 1;
#X connect 63 0 41 2;
#X connect 64 0 42 2;
#X connect 65 0 43 2;
#X connect 66 0 44 2;
#X connect 67 0 45 2;
#X connect 68 0 46 2;
#X connect 69 0 47 2;
#X connect 70 0 48 2;
#X connect 71 0 49 2;
#X connect 72 0 50 2;
#X connect 73 0 51 2;
#X connect 76 0 14 0;
#X connect 77 0 51 0;
#X connect 78 0 41 0;
#X connect 78 0 33 0;
#X connect 79 0 48 0;
#X connect 80 0 44 0;
#X connect 81 0 42 0;
#X connect 82 0 43 0;
#X connect 83 0 50 0;
#X connect 84 0 49 0;
#X connect 85 0 46 0;
#X connect 86 0 45 0;
#X connect 87 0 33 0;
#X connect 88 0 33 0;
#X connect 89 0 33 0;
#X connect 90 0 33 0;
#X connect 91 0 33 0;
#X connect 92 0 33 0;
#X connect 93 0 33 0;
#X connect 94 0 33 0;
#X connect 95 0 33 0;
#X connect 96 0 33 0;
#X connect 97 0 33 0;
#X connect 98 0 87 1;
#X connect 99 0 87 2;
#X connect 100 0 88 1;
#X connect 101 0 88 2;
#X connect 102 0 89 1;
#X connect 103 0 89 2;
#X connect 104 0 90 1;
#X connect 105 0 90 2;
#X connect 106 0 91 1;
#X connect 107 0 91 2;
#X connect 108 0 92 1;
#X connect 109 0 92 2;
#X connect 110 0 93 1;
#X connect 111 0 93 2;
#X connect 112 0 94 1;
#X connect 113 0 94 2;
#X connect 114 0 95 1;
#X connect 115 0 95 2;
#X connect 116 0 97 1;
#X connect 117 0 97 2;
#X connect 118 0 96 1;
#X connect 119 0 96 2;
