#N canvas 538 156 767 427 12;
#X obj 317 22 r PlusBang;
#X obj 451 107 f;
#X obj 513 112 + 10;
#X obj 317 47 t b;
#X obj 474 17 r currentVolume;
#X obj 164 110 f;
#X obj 30 50 t b;
#X obj 30 25 r MinusBang;
#X obj 72 110 - 10;
#X obj 270 291 s newVolume;
#X obj 270 244 min 100;
#X obj 270 219 abs;
#X text 312 219 keep volume between 0 and 100;
#X connect 0 0 3 0;
#X connect 1 0 2 0;
#X connect 1 0 5 1;
#X connect 1 0 11 0;
#X connect 2 0 1 1;
#X connect 3 0 1 0;
#X connect 4 0 5 0;
#X connect 4 0 1 0;
#X connect 5 0 8 0;
#X connect 5 0 1 1;
#X connect 5 0 11 0;
#X connect 6 0 5 0;
#X connect 7 0 6 0;
#X connect 8 0 5 1;
#X connect 10 0 9 0;
#X connect 11 0 10 0;
